<svg xmlns='http://www.w3.org/2000/svg' class='ionicon'>
<symbol id="infinite" viewBox='0 0 512 512'>
<path d='M256 256s-48-96-126-96c-54.12 0-98 43-98 96s43.88 96 98 96c37.51 0 71-22.41 94-48M256 256s48 96 126 96c54.12 0 98-43 98-96s-43.88-96-98-96c-37.51 0-71 22.41-94 48' fill='none' stroke='currentColor' stroke-linecap='round' stroke-miterlimit='10' stroke-width='32'/>
</symbol>
<symbol id="shuffle" viewBox='0 0 512 512'>
<path fill='none' stroke='currentColor' stroke-linecap='round' stroke-linejoin='round' stroke-width='32' d='M400 304l48 48-48 48M400 112l48 48-48 48M64 352h85.19a80 80 0 0066.56-35.62L256 256'/><path d='M64 160h85.19a80 80 0 0166.56 35.62l80.5 120.76A80 80 0 00362.81 352H416M416 160h-53.19a80 80 0 00-66.56 35.62L288 208' fill='none' stroke='currentColor' stroke-linecap='round' stroke-linejoin='round' stroke-width='32'/>
</symbol>
<symbol id="cart" viewBox='0 0 512 512'>
<circle cx='176' cy='416' r='16' fill='none' stroke='currentColor' stroke-linecap='round' stroke-linejoin='round' stroke-width='32'/><circle cx='400' cy='416' r='16' fill='none' stroke='currentColor' stroke-linecap='round' stroke-linejoin='round' stroke-width='32'/><path fill='none' stroke='currentColor' stroke-linecap='round' stroke-linejoin='round' stroke-width='32' d='M48 80h64l48 272h256'/><path d='M160 288h249.44a8 8 0 007.85-6.43l28.8-144a8 8 0 00-7.85-9.57H128' fill='none' stroke='currentColor' stroke-linecap='round' stroke-linejoin='round' stroke-width='32'/>
</symbol>
<symbol id="options" viewBox='0 0 512 512'>
<path fill='none' stroke='currentColor' stroke-linecap='round' stroke-linejoin='round' stroke-width='32' d='M368 128h80M64 128h240M368 384h80M64 384h240M208 256h240M64 256h80'/><circle cx='336' cy='128' r='32' fill='none' stroke='currentColor' stroke-linecap='round' stroke-linejoin='round' stroke-width='32'/><circle cx='176' cy='256' r='32' fill='none' stroke='currentColor' stroke-linecap='round' stroke-linejoin='round' stroke-width='32'/><circle cx='336' cy='384' r='32' fill='none' stroke='currentColor' stroke-linecap='round' stroke-linejoin='round' stroke-width='32'/>
</symbol>
<symbol id="facebook" viewBox="0 0 16 28">
<path d="M14.984 0.187v4.125h-2.453c-1.922 0-2.281 0.922-2.281 2.25v2.953h4.578l-0.609 4.625h-3.969v11.859h-4.781v-11.859h-3.984v-4.625h3.984v-3.406c0-3.953 2.422-6.109 5.953-6.109 1.687 0 3.141 0.125 3.563 0.187z" fill='#989898'></path>
</symbol>
<symbol id="twitter" viewBox='0 0 512 512'>
<path d='M496 109.5a201.8 201.8 0 01-56.55 15.3 97.51 97.51 0 0043.33-53.6 197.74 197.74 0 01-62.56 23.5A99.14 99.14 0 00348.31 64c-54.42 0-98.46 43.4-98.46 96.9a93.21 93.21 0 002.54 22.1 280.7 280.7 0 01-203-101.3A95.69 95.69 0 0036 130.4c0 33.6 17.53 63.3 44 80.7A97.5 97.5 0 0135.22 199v1.2c0 47 34 86.1 79 95a100.76 100.76 0 01-25.94 3.4 94.38 94.38 0 01-18.51-1.8c12.51 38.5 48.92 66.5 92.05 67.3A199.59 199.59 0 0139.5 405.6a203 203 0 01-23.5-1.4A278.68 278.68 0 00166.74 448c181.36 0 280.44-147.7 280.44-275.8 0-4.2-.11-8.4-.31-12.5A198.48 198.48 0 00496 109.5z' fill='#989898'/>
</symbol>
<symbol id="youtube" viewBox='0 0 512 512'>
<path d='M508.64 148.79c0-45-33.1-81.2-74-81.2C379.24 65 322.74 64 265 64h-18c-57.6 0-114.2 1-169.6 3.6C36.6 67.6 3.5 104 3.5 149 1 184.59-.06 220.19 0 255.79q-.15 53.4 3.4 106.9c0 45 33.1 81.5 73.9 81.5 58.2 2.7 117.9 3.9 178.6 3.8q91.2.3 178.6-3.8c40.9 0 74-36.5 74-81.5 2.4-35.7 3.5-71.3 3.4-107q.34-53.4-3.26-106.9zM207 353.89v-196.5l145 98.2z' fill='#989898'/>
</symbol>
<symbol id="linkedin" viewBox='0 0 512 512'>
<path d='M444.17 32H70.28C49.85 32 32 46.7 32 66.89v374.72C32 461.91 49.85 480 70.28 480h373.78c20.54 0 35.94-18.21 35.94-38.39V66.89C480.12 46.7 464.6 32 444.17 32zm-273.3 373.43h-64.18V205.88h64.18zM141 175.54h-.46c-20.54 0-33.84-15.29-33.84-34.43 0-19.49 13.65-34.42 34.65-34.42s33.85 14.82 34.31 34.42c-.01 19.14-13.31 34.43-34.66 34.43zm264.43 229.89h-64.18V296.32c0-26.14-9.34-44-32.56-44-17.74 0-28.24 12-32.91 23.69-1.75 4.2-2.22 9.92-2.22 15.76v113.66h-64.18V205.88h64.18v27.77c9.34-13.3 23.93-32.44 57.88-32.44 42.13 0 74 27.77 74 87.64z' fill='#989898'/>
</symbol>
<symbol id="pinterest" viewBox="0 0 32 32">
<path d="M16 2.138c-7.656 0-13.863 6.206-13.863 13.863 0 5.875 3.656 10.887 8.813 12.906-0.119-1.094-0.231-2.781 0.050-3.975 0.25-1.081 1.625-6.887 1.625-6.887s-0.412-0.831-0.412-2.056c0-1.925 1.119-3.369 2.506-3.369 1.181 0 1.756 0.887 1.756 1.95 0 1.188-0.756 2.969-1.15 4.613-0.331 1.381 0.688 2.506 2.050 2.506 2.462 0 4.356-2.6 4.356-6.35 0-3.319-2.387-5.638-5.787-5.638-3.944 0-6.256 2.956-6.256 6.019 0 1.194 0.456 2.469 1.031 3.163 0.113 0.137 0.131 0.256 0.094 0.4-0.106 0.438-0.338 1.381-0.387 1.575-0.063 0.256-0.2 0.306-0.463 0.188-1.731-0.806-2.813-3.337-2.813-5.369 0-4.375 3.175-8.387 9.156-8.387 4.806 0 8.544 3.425 8.544 8.006 0 4.775-3.012 8.625-7.194 8.625-1.406 0-2.725-0.731-3.175-1.594 0 0-0.694 2.644-0.863 3.294-0.313 1.206-1.156 2.712-1.725 3.631 1.3 0.4 2.675 0.619 4.106 0.619 7.656 0 13.863-6.206 13.863-13.863 0-7.662-6.206-13.869-13.863-13.869z"  fill='#989898'></path>
</symbol>
<symbol id="instagram" viewBox="0 0 32 32">
<path d="M16 2.881c4.275 0 4.781 0.019 6.462 0.094 1.563 0.069 2.406 0.331 2.969 0.55 0.744 0.288 1.281 0.638 1.837 1.194 0.563 0.563 0.906 1.094 1.2 1.838 0.219 0.563 0.481 1.412 0.55 2.969 0.075 1.688 0.094 2.194 0.094 6.463s-0.019 4.781-0.094 6.463c-0.069 1.563-0.331 2.406-0.55 2.969-0.288 0.744-0.637 1.281-1.194 1.837-0.563 0.563-1.094 0.906-1.837 1.2-0.563 0.219-1.413 0.481-2.969 0.55-1.688 0.075-2.194 0.094-6.463 0.094s-4.781-0.019-6.463-0.094c-1.563-0.069-2.406-0.331-2.969-0.55-0.744-0.288-1.281-0.637-1.838-1.194-0.563-0.563-0.906-1.094-1.2-1.837-0.219-0.563-0.481-1.413-0.55-2.969-0.075-1.688-0.094-2.194-0.094-6.463s0.019-4.781 0.094-6.463c0.069-1.563 0.331-2.406 0.55-2.969 0.288-0.744 0.638-1.281 1.194-1.838 0.563-0.563 1.094-0.906 1.838-1.2 0.563-0.219 1.412-0.481 2.969-0.55 1.681-0.075 2.188-0.094 6.463-0.094zM16 0c-4.344 0-4.887 0.019-6.594 0.094-1.7 0.075-2.869 0.35-3.881 0.744-1.056 0.412-1.95 0.956-2.837 1.85-0.894 0.888-1.438 1.781-1.85 2.831-0.394 1.019-0.669 2.181-0.744 3.881-0.075 1.713-0.094 2.256-0.094 6.6s0.019 4.887 0.094 6.594c0.075 1.7 0.35 2.869 0.744 3.881 0.413 1.056 0.956 1.95 1.85 2.837 0.887 0.887 1.781 1.438 2.831 1.844 1.019 0.394 2.181 0.669 3.881 0.744 1.706 0.075 2.25 0.094 6.594 0.094s4.888-0.019 6.594-0.094c1.7-0.075 2.869-0.35 3.881-0.744 1.050-0.406 1.944-0.956 2.831-1.844s1.438-1.781 1.844-2.831c0.394-1.019 0.669-2.181 0.744-3.881 0.075-1.706 0.094-2.25 0.094-6.594s-0.019-4.887-0.094-6.594c-0.075-1.7-0.35-2.869-0.744-3.881-0.394-1.063-0.938-1.956-1.831-2.844-0.887-0.887-1.781-1.438-2.831-1.844-1.019-0.394-2.181-0.669-3.881-0.744-1.712-0.081-2.256-0.1-6.6-0.1v0z"  fill='#989898'></path>
<path d="M16 7.781c-4.537 0-8.219 3.681-8.219 8.219s3.681 8.219 8.219 8.219 8.219-3.681 8.219-8.219c0-4.537-3.681-8.219-8.219-8.219zM16 21.331c-2.944 0-5.331-2.387-5.331-5.331s2.387-5.331 5.331-5.331c2.944 0 5.331 2.387 5.331 5.331s-2.387 5.331-5.331 5.331z"  fill='#989898'></path>
<path d="M26.462 7.456c0 1.060-0.859 1.919-1.919 1.919s-1.919-0.859-1.919-1.919c0-1.060 0.859-1.919 1.919-1.919s1.919 0.859 1.919 1.919z"  fill='#989898'></path>
</symbol>


</svg>